<svg xmlns="http://www.w3.org/2000/svg" viewBox="0 0 960 540" role="img" aria-label="ERV main shell with workout builder">
  <defs>
    <linearGradient id="bg" x1="0" y1="0" x2="0" y2="1">
      <stop offset="0%" stop-color="#fffbf7"/>
      <stop offset="45%" stop-color="#fff8f0"/>
      <stop offset="100%" stop-color="#f5e6d8"/>
    </linearGradient>
    <linearGradient id="sun" cx="50%" cy="50%" r="50%">
      <stop offset="0%" stop-color="#fff9c4"/>
      <stop offset="55%" stop-color="#ffd600"/>
      <stop offset="100%" stop-color="#ff8f00"/>
    </linearGradient>
  </defs>
  <rect width="960" height="540" fill="url(#bg)"/>
  <rect width="960" height="72" fill="#c62828"/>
  <circle cx="52" cy="36" r="18" fill="url(#sun)"/>
  <text x="80" y="34" font-family="Nunito, sans-serif" font-size="22" font-weight="700" fill="#ffffff">ERV</text>
  <text x="80" y="52" font-family="Nunito, sans-serif" font-size="11" fill="#ffffff" opacity="0.9">Relay-synced training library editor</text>
  <rect x="760" y="22" width="72" height="28" rx="14" fill="none" stroke="#ffffff" stroke-opacity="0.45"/>
  <text x="796" y="41" text-anchor="middle" font-family="Nunito, sans-serif" font-size="12" fill="#ffffff">Settings</text>
  <rect x="844" y="22" width="56" height="28" rx="14" fill="none" stroke="#ffffff" stroke-opacity="0.45"/>
  <text x="872" y="41" text-anchor="middle" font-family="Nunito, sans-serif" font-size="12" fill="#ffffff">Lock</text>
  <rect x="48" y="96" width="132" height="34" rx="17" fill="#c45c26"/>
  <text x="114" y="118" text-anchor="middle" font-family="Nunito, sans-serif" font-size="13" font-weight="700" fill="#ffffff">Workout Builder</text>
  <rect x="192" y="96" width="92" height="34" rx="17" fill="none" stroke="#8c7060"/>
  <text x="238" y="118" text-anchor="middle" font-family="Nunito, sans-serif" font-size="13" fill="#2c1810">Routines</text>
  <rect x="296" y="96" width="84" height="34" rx="17" fill="none" stroke="#8c7060"/>
  <text x="338" y="118" text-anchor="middle" font-family="Nunito, sans-serif" font-size="13" fill="#2c1810">Catalog</text>
  <rect x="48" y="152" width="864" height="340" rx="12" fill="#fff8f0" stroke="#8c7060"/>
  <text x="72" y="188" font-family="Nunito, sans-serif" font-size="18" font-weight="700" fill="#2c1810">Workout library</text>
  <text x="72" y="214" font-family="Nunito, sans-serif" font-size="13" fill="#5c4434">Compose circuits and publish to your relay</text>
  <rect x="72" y="240" width="240" height="120" rx="10" fill="#ffffff" stroke="#8c7060"/>
  <text x="88" y="268" font-family="Nunito, sans-serif" font-size="14" font-weight="700" fill="#2c1810">Upper body circuit</text>
  <text x="88" y="292" font-family="Nunito, sans-serif" font-size="12" fill="#5c4434">3 segments � 45 min</text>
  <rect x="328" y="240" width="240" height="120" rx="10" fill="#ffffff" stroke="#8c7060"/>
  <text x="344" y="268" font-family="Nunito, sans-serif" font-size="14" font-weight="700" fill="#2c1810">Morning stretch flow</text>
  <text x="344" y="292" font-family="Nunito, sans-serif" font-size="12" fill="#5c4434">2 segments � 20 min</text>
  <rect x="72" y="392" width="160" height="36" rx="18" fill="#c45c26"/>
  <text x="152" y="415" text-anchor="middle" font-family="Nunito, sans-serif" font-size="13" font-weight="700" fill="#ffffff">New workout</text>
</svg>
